<?xml version="1.0" standalone="no"?>
<!DOCTYPE svg PUBLIC "-//W3C//DTD SVG 20010904//EN"
 "http://www.w3.org/TR/2001/REC-SVG-20010904/DTD/svg10.dtd">
<svg version="1.0" xmlns="http://www.w3.org/2000/svg"
 width="1078.000000pt" height="1078.000000pt" viewBox="0 0 1078.000000 1078.000000"
 preserveAspectRatio="xMidYMid meet">
<metadata>
Created by potrace 1.11, written by Peter Selinger 2001-2013
</metadata>
<g transform="translate(0.000000,1078.000000) scale(0.100000,-0.100000)"
fill="#000000" stroke="none">
<path d="M1195 10496 c-51 -22 -97 -68 -121 -121 l-24 -50 1 -795 c1 -437 4
-781 8 -765 18 72 70 133 138 162 27 11 719 13 4160 13 3989 0 4129 -1 4169
-19 50 -23 109 -90 122 -139 7 -25 10 220 11 753 l1 790 -24 51 c-27 58 -80
106 -135 123 -60 17 -8265 15 -8306 -3z m7413 -389 c6 -6 14 -25 17 -40 6 -23
12 -27 29 -23 11 4 48 14 81 23 177 47 386 -53 467 -223 79 -168 50 -344 -79
-473 -287 -285 -757 -46 -702 357 9 63 54 167 83 191 23 19 20 25 -19 44 -56
27 -44 87 17 87 23 0 28 4 28 23 0 13 5 28 12 35 16 16 53 15 66 -1z m-6351
-542 c94 -32 164 -70 226 -126 50 -43 59 -72 28 -88 -16 -9 -30 -2 -78 35
-122 95 -233 134 -386 134 -147 0 -265 -43 -380 -139 -39 -32 -53 -39 -67 -31
-48 26 -22 65 94 141 163 107 378 136 563 74z m-69 -192 c63 -15 160 -71 197
-112 15 -17 17 -26 9 -39 -18 -28 -44 -26 -85 8 -22 17 -65 43 -97 58 -51 24
-68 27 -162 26 -118 0 -159 -13 -243 -78 -53 -41 -90 -45 -95 -10 -4 29 64 89
142 125 101 47 208 54 334 22z m-23 -197 c59 -27 90 -59 81 -82 -4 -11 -10
-13 -19 -6 -6 5 -28 12 -47 15 -19 3 -59 12 -88 19 -46 11 -60 10 -102 -5 -62
-22 -142 -23 -134 -2 7 17 63 54 109 72 53 20 144 15 200 -11z"/>
<path d="M8585 9824 c-26 -40 -45 -103 -45 -150 l0 -44 291 0 292 0 -5 65 c-4
45 -14 78 -32 110 l-27 45 -228 0 -229 0 -17 -26z m169 -40 c37 -36 7 -104
-45 -104 -36 0 -59 24 -59 60 0 16 7 36 16 44 8 9 28 16 44 16 16 0 36 -7 44
-16z m240 0 c21 -20 20 -63 -1 -86 -35 -39 -103 -11 -103 43 0 36 24 59 60 59
16 0 36 -7 44 -16z"/>
<path d="M8758 8483 l-3 -68 -82 -3 -83 -3 0 -44 c0 -45 0 -45 35 -45 22 0 43
-8 55 -20 19 -19 20 -33 20 -211 0 -112 -4 -198 -10 -210 -8 -14 -21 -19 -49
-19 -42 0 -51 -13 -51 -77 l0 -33 85 0 85 0 0 -70 0 -70 45 0 45 0 0 70 0 70
30 0 30 0 0 -70 0 -70 45 0 45 0 0 70 0 69 38 6 c135 21 204 72 217 160 14 90
-9 149 -70 183 -16 9 -32 18 -34 20 -3 1 8 15 24 32 36 38 45 110 20 164 -21
45 -83 83 -148 92 l-47 7 0 68 0 69 -45 0 -45 0 0 -65 0 -65 -30 0 -30 0 0 65
0 65 -45 0 -44 0 -3 -67z m232 -184 c40 -15 62 -60 48 -100 -12 -34 -69 -59
-138 -59 l-50 0 0 85 0 85 54 0 c29 0 68 -5 86 -11z m48 -273 c63 -33 64 -104
2 -140 -22 -13 -58 -21 -111 -24 l-79 -5 0 98 0 98 78 -5 c45 -3 91 -12 110
-22z"/>
<path d="M1184 7360 c-46 -23 -86 -61 -108 -105 -13 -24 -16 -26 -17 -10 0 17
-2 17 -11 -5 -8 -17 -14 -271 -21 -790 -11 -963 -11 -1126 3 -2045 6 -412 14
-1459 18 -2326 l7 -1576 30 -49 c19 -30 49 -60 79 -79 l49 -30 4121 -3 c3042
-2 4132 0 4162 9 54 14 109 60 137 112 l22 42 7 1585 c4 872 12 1925 18 2340
6 415 12 865 12 1000 0 510 -17 1799 -25 1806 -4 4 -7 -1 -7 -12 -1 -13 -5
-10 -14 12 -21 47 -77 105 -121 125 -38 18 -197 19 -4170 19 -4125 0 -4130 0
-4171 -20z m7954 -389 c108 -56 159 -176 115 -269 -18 -37 -158 -192 -174
-192 -5 0 -9 15 -9 33 0 17 -4 47 -10 66 -9 32 -7 37 40 88 60 66 63 92 16
139 -54 54 -74 48 -177 -52 -111 -110 -120 -128 -85 -188 30 -52 32 -72 9 -98
-37 -41 -93 -12 -129 66 -29 62 -30 97 -4 155 25 55 189 223 244 251 52 25
116 26 164 1z m-164 -272 c68 -54 88 -173 40 -245 -34 -51 -170 -189 -212
-216 -78 -48 -164 -40 -235 22 -25 22 -52 55 -61 74 -21 44 -21 128 0 169 17
32 161 187 174 187 4 0 10 -32 13 -72 l6 -72 -44 -47 c-55 -59 -60 -101 -17
-141 59 -55 83 -46 200 76 90 94 100 121 61 170 -28 35 -27 75 1 98 29 23 41
23 74 -3z m-6771 -244 c114 -24 282 -117 322 -179 13 -19 14 -29 5 -45 -16
-31 -42 -26 -97 17 -121 96 -232 136 -378 136 -151 0 -283 -49 -391 -144 -37
-32 -62 -38 -82 -18 -22 22 -12 46 37 90 64 58 171 114 263 138 89 23 226 25
321 5z m-33 -201 c66 -15 162 -64 208 -106 24 -23 29 -57 10 -76 -19 -19 -35
-14 -99 33 -81 60 -148 78 -258 73 -97 -5 -171 -32 -233 -87 -20 -17 -43 -31
-51 -31 -17 0 -47 26 -47 40 0 24 69 83 133 115 113 56 213 67 337 39z m10
-209 c61 -31 86 -65 70 -94 -14 -28 -46 -26 -81 4 -55 46 -162 47 -227 1 -42
-29 -62 -32 -80 -14 -21 21 -13 46 26 78 77 64 195 74 292 25z m6740 -637 c67
-20 133 -60 180 -108 l48 -49 20 22 c11 12 33 47 50 77 16 30 33 54 38 53 27
-6 8 -126 -33 -207 -23 -45 -24 -52 -12 -99 31 -129 -15 -282 -113 -380 -183
-183 -480 -159 -633 51 -65 90 -93 241 -65 344 9 30 7 42 -9 70 -38 64 -65
208 -41 223 5 3 20 -16 34 -43 14 -27 36 -63 51 -80 l25 -30 55 53 c108 106
263 145 405 103z m-6695 -525 c84 -21 211 -89 268 -144 43 -41 47 -50 38 -68
-16 -30 -54 -26 -93 8 -105 91 -238 141 -380 141 -145 0 -264 -41 -376 -129
-56 -45 -97 -53 -107 -21 -3 10 -1 28 5 39 12 23 116 99 175 128 139 69 311
86 470 46z m-56 -194 c62 -14 147 -57 194 -99 34 -31 39 -40 33 -63 -9 -37
-43 -35 -92 4 -22 18 -64 43 -94 58 -48 23 -68 26 -155 26 -88 0 -107 -3 -158
-27 -32 -15 -76 -41 -97 -58 -43 -34 -74 -38 -89 -13 -25 46 86 134 210 167
63 17 186 20 248 5z m8 -207 c43 -22 86 -68 80 -85 -2 -6 -12 -16 -23 -24 -18
-12 -26 -9 -69 19 -42 28 -58 33 -110 33 -51 0 -68 -5 -109 -31 -28 -18 -56
-29 -67 -27 -21 6 -32 33 -23 56 7 19 61 54 113 74 51 19 156 11 208 -15z
m346 -483 c44 -12 101 -59 125 -103 15 -27 17 -73 20 -351 2 -216 0 -334 -8
-365 -15 -58 -51 -105 -101 -130 -38 -20 -55 -20 -518 -18 l-479 3 -39 31
c-21 16 -48 50 -60 74 -22 43 -23 52 -23 371 0 221 4 337 12 360 21 62 61 102
127 125 46 17 886 20 944 3z m-836 -1496 c27 -12 42 -30 60 -70 22 -48 24 -65
21 -151 -2 -72 -8 -107 -23 -137 -55 -110 -193 -113 -255 -4 -22 39 -25 56
-25 144 0 87 3 107 25 150 39 79 118 106 197 68z m401 -3 c53 -33 76 -96 77
-210 0 -83 -3 -102 -25 -144 -60 -116 -198 -114 -257 4 -19 37 -23 61 -23 140
0 79 4 103 23 140 42 84 132 114 205 70z m385 6 c80 -33 88 -114 21 -187 l-24
-25 26 -14 c14 -8 32 -27 40 -42 57 -110 -73 -217 -201 -164 -87 37 -93 151
-10 206 l26 17 -26 17 c-33 22 -58 79 -50 116 16 71 117 110 198 76z m395 0
c59 -31 76 -61 80 -141 5 -100 -18 -173 -73 -229 -41 -43 -133 -85 -155 -71
-17 10 -12 45 7 45 57 0 138 71 158 138 6 21 5 23 -13 13 -34 -18 -123 -13
-159 9 -92 56 -79 191 22 236 39 17 99 17 133 0z m812 -1 c0 -8 0 -18 0 -22
-1 -5 -17 -14 -38 -21 -45 -15 -100 -66 -118 -109 -20 -46 -18 -57 8 -39 53
37 163 11 194 -46 19 -33 17 -105 -3 -139 -42 -70 -158 -88 -227 -35 -45 34
-60 82 -53 162 13 134 111 247 230 263 4 1 7 -6 7 -14z m1978 -12 c48 -35 64
-79 59 -164 -6 -134 -72 -227 -182 -258 -54 -15 -55 -14 -55 13 0 18 7 25 32
30 49 10 95 46 123 97 30 56 31 63 6 49 -29 -15 -118 -12 -151 5 -67 35 -92
121 -53 186 39 65 158 88 221 42z m370 12 c75 -30 90 -108 33 -176 l-28 -33
33 -29 c65 -57 51 -151 -28 -187 -160 -73 -297 91 -164 195 l31 25 -23 15
c-27 20 -52 66 -52 98 0 50 69 106 132 107 15 0 45 -7 66 -15z m798 -1 c55
-26 79 -76 77 -159 -3 -146 -69 -244 -187 -276 -30 -8 -41 -8 -47 3 -15 22
-10 38 11 38 57 0 140 72 156 134 6 26 5 27 -14 17 -30 -16 -106 -13 -144 5
-49 24 -73 61 -73 116 0 105 118 171 221 122z m814 -13 c0 -12 -10 -21 -27
-24 -62 -14 -128 -78 -148 -145 -7 -23 -6 -23 24 -8 16 9 48 16 71 16 104 0
166 -89 126 -184 -53 -126 -255 -106 -284 29 -30 140 65 307 192 335 37 8 46
5 46 -19z m1147 18 c15 -6 38 -20 51 -31 39 -38 25 -125 -27 -164 -13 -10 -9
-17 22 -46 21 -20 37 -46 38 -59 4 -77 -15 -110 -72 -133 -103 -41 -209 12
-209 105 0 32 7 46 40 79 l39 39 -34 35 c-57 56 -43 134 30 167 46 21 82 24
122 8z m-4667 -24 c0 -19 -166 -389 -186 -413 -1 -2 -14 -2 -28 0 l-26 3 90
187 c49 103 90 190 90 193 0 3 -49 5 -110 5 l-110 0 0 25 0 25 140 0 140 0 0
-25z m360 -105 l0 -130 40 0 c36 0 40 -2 40 -25 0 -22 -4 -25 -40 -25 l-40 0
0 -66 0 -65 -27 3 c-27 3 -28 6 -31 65 l-3 62 -97 3 c-128 4 -129 10 -17 148
46 58 85 110 85 116 0 17 41 43 68 43 22 1 22 -1 22 -129z m420 105 c0 -25 -1
-25 -85 -25 l-85 0 0 -60 0 -60 35 0 c117 0 185 -118 122 -211 -31 -47 -70
-64 -142 -64 -76 1 -110 17 -94 46 7 14 16 18 27 14 76 -32 155 -8 171 51 20
71 -25 114 -119 114 l-50 0 0 110 0 110 110 0 110 0 0 -25z m1550 -89 c0 -63
3 -121 6 -130 4 -11 19 -16 46 -16 35 0 39 -2 36 -22 -2 -19 -10 -24 -45 -26
l-43 -3 0 -65 c0 -62 -1 -64 -25 -64 -24 0 -25 2 -25 65 l0 65 -100 0 -100 0
0 26 c0 16 21 51 58 97 32 40 77 98 101 130 31 43 48 57 66 57 l25 0 0 -114z
m1630 97 c0 -10 -43 -109 -97 -220 -91 -191 -98 -203 -124 -203 l-28 0 33 73
c18 39 61 127 95 195 l61 122 -110 0 -110 0 0 25 0 25 140 0 c127 0 140 -2
140 -17z m375 -8 c0 -18 -8 -20 -82 -23 l-83 -3 0 -59 0 -60 38 0 c77 0 142
-62 142 -135 0 -104 -129 -175 -236 -130 -31 13 -34 17 -24 35 8 15 17 19 28
15 31 -12 81 -17 106 -11 53 13 81 75 60 131 -10 25 -59 45 -114 45 l-50 0 -1
38 c-4 136 -4 168 -1 175 2 4 52 6 110 5 99 -3 107 -4 107 -23z m-6891 -971
c21 -8 21 -54 1 -54 -8 0 -15 7 -15 15 0 20 -34 19 -54 -1 -25 -24 -24 -88 1
-116 20 -22 63 -24 63 -3 0 8 5 15 11 15 6 0 9 -10 7 -22 -6 -42 -96 -40 -119
4 -12 22 -14 85 -4 117 11 35 70 60 109 45z m323 -21 c18 -23 16 -48 -3 -68
-16 -15 -15 -19 5 -55 24 -44 26 -50 9 -50 -7 0 -23 18 -36 40 -30 53 -52 53
-52 0 0 -29 -4 -40 -15 -40 -12 0 -15 17 -15 94 0 66 4 96 13 100 22 10 82 -3
94 -21z m143 12 c53 -27 62 -113 17 -162 -15 -17 -32 -23 -64 -23 l-43 0 0 93
c0 52 3 97 7 100 11 12 53 8 83 -8z m342 -5 c31 -24 41 -70 28 -120 -12 -45
-31 -62 -65 -62 -55 0 -86 66 -65 140 15 58 59 76 102 42z m318 3 c36 -24 40
-33 40 -84 0 -67 -28 -99 -86 -99 l-44 0 0 93 c0 52 3 97 7 100 12 13 58 7 83
-10z m346 -4 c18 -15 18 -49 0 -75 -13 -18 -12 -25 9 -62 22 -38 22 -42 6 -42
-11 0 -25 15 -36 40 -12 26 -25 40 -37 40 -14 0 -18 -8 -18 -40 0 -40 -13 -53
-24 -24 -12 31 -7 172 7 178 18 8 77 -1 93 -15z m5168 11 c36 -13 60 -68 52
-114 -10 -51 -40 -76 -93 -76 l-43 0 0 93 c0 52 3 97 7 100 9 10 48 8 77 -3z
m-6477 -95 c25 -75 28 -95 17 -95 -8 0 -19 11 -24 25 -8 20 -16 25 -45 25 -29
0 -36 -4 -41 -25 -3 -14 -12 -25 -20 -25 -18 0 -18 -5 12 92 31 99 31 98 52
98 13 0 26 -24 49 -95z m403 55 l0 -40 40 0 40 0 0 40 c0 29 4 40 15 40 12 0
15 -17 15 -95 0 -78 -3 -95 -15 -95 -11 0 -15 11 -15 40 0 22 -4 40 -9 40 -5
0 -23 3 -40 6 l-31 7 0 -47 c0 -34 -4 -46 -15 -46 -12 0 -15 17 -15 95 0 78 3
95 15 95 11 0 15 -11 15 -40z m330 -7 c0 -27 3 -65 6 -85 6 -35 9 -38 40 -38
30 0 34 3 34 25 0 14 5 25 10 25 6 0 10 -16 10 -35 l0 -35 -60 0 -60 0 0 95
c0 57 4 95 10 95 6 0 10 -21 10 -47z m430 37 c0 -5 -20 -10 -45 -10 -43 0 -45
-1 -45 -30 0 -28 2 -30 40 -30 22 0 40 -4 40 -10 0 -5 -18 -10 -40 -10 -39 0
-40 -1 -40 -35 0 -35 0 -35 45 -35 25 0 45 -4 45 -10 0 -6 -27 -10 -60 -10
l-60 0 0 95 0 95 60 0 c33 0 60 -4 60 -10z m426 -52 l39 -63 3 63 c2 44 7 62
15 59 15 -5 17 -179 2 -184 -5 -1 -28 25 -50 59 l-40 63 -3 -63 c-2 -46 -7
-62 -17 -62 -12 0 -15 19 -15 95 0 116 11 121 66 33z m216 -28 c32 -97 33
-100 14 -100 -8 0 -17 11 -20 25 -5 21 -12 25 -41 25 -29 0 -37 -5 -45 -25 -9
-23 -30 -35 -30 -17 0 7 37 122 55 170 3 8 12 12 22 10 11 -2 26 -32 45 -88z
m96 60 c9 -16 19 -30 22 -30 3 0 13 14 22 30 9 17 24 30 33 30 12 0 15 -16 15
-95 0 -78 -3 -95 -15 -95 -12 0 -15 14 -15 68 l-1 67 -17 -27 c-9 -16 -19 -28
-22 -28 -3 0 -13 12 -22 28 l-17 27 -1 -67 c0 -54 -3 -68 -15 -68 -12 0 -15
17 -15 95 0 79 3 95 15 95 9 0 24 -13 33 -30z m242 20 c0 -5 -21 -10 -46 -10
-43 0 -46 -2 -40 -22 3 -13 6 -26 6 -30 0 -5 18 -8 40 -8 53 0 51 -18 -2 -22
-40 -3 -43 -5 -43 -33 0 -29 2 -30 48 -33 68 -4 58 -22 -13 -22 l-60 0 0 95 0
95 55 0 c30 0 55 -4 55 -10z m3630 -57 c13 -38 26 -72 30 -76 4 -4 17 26 29
68 13 47 27 75 35 75 11 0 7 -22 -17 -95 -40 -121 -52 -123 -91 -12 -16 45
-31 88 -34 95 -2 6 3 12 11 12 10 0 23 -23 37 -67z m242 -23 c15 -46 28 -88
28 -92 0 -18 -21 -6 -32 17 -9 19 -19 25 -45 25 -27 0 -35 -5 -43 -25 -9 -23
-30 -35 -30 -17 0 7 37 122 55 170 3 8 12 12 22 10 11 -2 26 -32 45 -88z m88
5 l0 -85 35 0 c31 0 35 3 35 25 0 14 5 25 10 25 6 0 10 -16 10 -35 l0 -35 -60
0 -60 0 0 95 c0 78 3 95 15 95 12 0 15 -16 15 -85z m260 75 c0 -5 -11 -10 -25
-10 -24 0 -25 -2 -25 -75 0 -73 1 -75 25 -75 14 0 25 -4 25 -10 0 -6 -28 -10
-65 -10 -37 0 -65 4 -65 10 0 6 11 10 25 10 24 0 25 2 25 75 0 73 -1 75 -25
75 -14 0 -25 5 -25 10 0 6 28 10 65 10 37 0 65 -4 65 -10z m392 -66 c2 -60 7
-79 21 -88 12 -8 22 -8 35 0 13 9 18 28 20 88 2 59 6 76 17 76 31 0 15 -161
-18 -182 -21 -13 -75 -9 -91 8 -22 22 -23 174 -1 174 11 0 15 -17 17 -76z
m197 14 l41 -63 0 63 c0 48 3 62 15 62 12 0 15 -17 15 -95 0 -55 -4 -95 -10
-95 -5 0 -30 30 -55 67 l-45 68 0 -68 c0 -38 -4 -67 -10 -67 -6 0 -10 38 -10
95 0 52 4 95 9 95 4 0 27 -28 50 -62z m241 37 c0 -16 -6 -25 -15 -25 -8 0 -15
7 -15 15 0 8 -7 15 -15 15 -12 0 -15 -15 -15 -75 0 -60 3 -75 15 -75 8 0 15
-4 15 -10 0 -5 -20 -10 -45 -10 -25 0 -45 5 -45 10 0 6 7 10 15 10 12 0 15 15
15 75 0 60 -3 75 -15 75 -8 0 -15 -7 -15 -15 0 -8 -7 -15 -15 -15 -9 0 -15 9
-15 25 0 24 2 25 75 25 73 0 75 -1 75 -25z m160 15 c0 -5 -13 -10 -30 -10
l-30 0 0 -75 0 -75 30 0 c17 0 30 -4 30 -10 0 -6 -30 -10 -70 -10 -40 0 -70 4
-70 10 0 6 14 10 30 10 l30 0 0 75 0 75 -30 0 c-16 0 -30 5 -30 10 0 6 30 10
70 10 40 0 70 -4 70 -10z m60 -75 l0 -85 40 0 c36 0 40 3 40 25 0 14 5 25 10
25 6 0 10 -16 10 -35 l0 -36 -62 3 -63 3 -3 93 c-2 77 0 92 13 92 12 0 15 -15
15 -85z m-7490 -385 c0 -29 -4 -40 -15 -40 -8 0 -15 9 -15 20 0 15 -7 20 -25
20 l-25 0 0 -105 c0 -98 1 -105 20 -105 11 0 20 -7 20 -15 0 -12 -13 -15 -60
-15 -47 0 -60 3 -60 15 0 8 9 15 20 15 19 0 20 7 20 105 l0 105 -25 0 c-18 0
-25 -5 -25 -20 0 -13 -7 -20 -20 -20 -17 0 -20 7 -20 40 l0 40 105 0 105 0 0
-40z m210 -65 c0 -126 -12 -159 -65 -174 -42 -11 -89 -1 -93 22 -3 14 3 16 40
11 67 -9 78 7 78 117 l0 89 -60 0 c-53 0 -60 2 -60 20 0 18 7 20 80 20 l80 0
0 -105z m221 -22 c23 -71 44 -134 47 -140 2 -8 -4 -13 -16 -13 -14 0 -24 10
-32 35 -11 34 -13 35 -65 35 -51 0 -54 -1 -60 -31 -7 -29 -29 -48 -42 -35 -3
3 13 67 37 141 39 120 46 135 66 135 20 0 27 -15 65 -127z m127 -1 l3 -122 49
0 50 0 0 36 c0 28 3 35 18 32 9 -2 17 -9 16 -16 -1 -6 -2 -28 -2 -47 l-2 -35
-85 0 -85 0 0 141 c0 128 2 140 18 137 15 -3 17 -18 20 -126z m232 3 l0 -125
56 0 c47 0 55 3 53 18 -3 36 1 52 16 52 11 0 15 -12 15 -50 l0 -50 -90 0 -90
0 0 140 c0 133 1 140 20 140 19 0 20 -7 20 -125z m370 105 c0 -18 -7 -20 -65
-20 l-65 0 0 -40 0 -40 61 0 c52 0 60 -2 57 -17 -2 -14 -15 -19 -61 -21 l-57
-3 0 -44 0 -45 65 0 c51 0 65 -3 65 -15 0 -12 -16 -15 -85 -15 l-85 0 0 140 0
140 85 0 c78 0 85 -2 85 -20z m445 -5 c30 -29 32 -55 6 -86 -18 -22 -18 -23 0
-38 69 -59 -12 -149 -119 -133 l-32 4 0 139 0 139 60 0 c51 0 65 -4 85 -25z
m255 5 c0 -18 -7 -20 -65 -20 -36 0 -65 -4 -65 -9 0 -5 3 -23 6 -40 6 -30 8
-31 60 -31 47 0 54 -2 54 -20 0 -18 -7 -20 -60 -20 -65 0 -65 -1 -54 -59 6
-30 7 -31 65 -31 46 0 59 -3 59 -15 0 -12 -16 -15 -80 -15 l-80 0 0 140 0 140
80 0 c73 0 80 -2 80 -20z m204 -1 c32 -25 35 -75 6 -111 l-20 -26 30 -53 c35
-63 36 -69 12 -69 -11 0 -29 22 -50 60 -23 41 -39 60 -53 60 -17 0 -19 -7 -19
-60 0 -53 -2 -60 -20 -60 -19 0 -20 7 -20 140 l0 140 54 0 c39 0 60 -6 80 -21z
m264 -21 c2 -28 -1 -38 -12 -38 -8 0 -16 10 -18 23 -2 18 -9 22 -38 20 -50 -2
-70 -32 -70 -103 0 -77 26 -112 79 -108 34 3 36 5 39 41 3 35 2 37 -27 37 -21
0 -31 5 -31 15 0 11 12 15 45 15 l45 0 0 -65 0 -64 -41 -11 c-89 -24 -150 31
-150 135 0 98 46 148 131 143 44 -3 45 -4 48 -40z m203 32 c68 -37 62 -231 -9
-266 -19 -10 -20 -13 -8 -23 9 -7 24 -10 36 -6 18 6 21 3 18 -11 -7 -37 -82
-29 -100 11 -6 14 -16 25 -23 25 -6 0 -22 11 -35 25 -46 49 -37 205 14 241 24
16 79 18 107 4z m147 -107 l39 -118 38 115 c21 63 39 117 41 119 2 2 10 1 18
-2 12 -5 7 -29 -30 -141 -41 -121 -48 -136 -68 -136 -20 0 -28 14 -66 128 -24
70 -45 133 -48 140 -2 7 4 12 16 12 17 0 27 -19 60 -117z m367 97 c0 -10 -12
-16 -37 -18 l-38 -3 0 -105 0 -104 40 0 c29 0 40 -4 40 -15 0 -12 -18 -15
-100 -15 -82 0 -100 3 -100 15 0 11 11 15 40 15 l40 0 0 105 0 105 -34 0 c-19
0 -38 5 -41 10 -15 24 10 31 98 28 74 -2 92 -6 92 -18z m209 7 c22 -16 18 -60
-6 -65 -13 -2 -18 3 -18 17 0 26 -39 37 -70 21 -36 -19 -22 -51 40 -85 30 -17
61 -43 70 -58 13 -24 13 -30 0 -54 -9 -15 -32 -34 -52 -41 -31 -12 -43 -12
-80 -1 -40 13 -43 17 -43 49 0 42 26 49 35 10 5 -20 13 -26 44 -28 20 -2 44 2
52 9 29 24 15 47 -48 85 -71 41 -78 48 -78 86 0 55 104 92 154 55z m266 -27
c0 -29 -4 -40 -15 -40 -8 0 -15 9 -15 20 0 15 -7 20 -25 20 l-25 0 0 -105 c0
-98 1 -105 20 -105 11 0 20 -7 20 -15 0 -12 -13 -15 -60 -15 -47 0 -60 3 -60
15 0 8 9 15 20 15 19 0 20 7 20 105 l0 105 -25 0 c-18 0 -25 -5 -25 -20 0 -36
-28 -22 -32 15 -2 20 -2 38 1 40 2 3 49 5 103 5 l98 0 0 -40z m2420 -85 l0
-125 30 0 c20 0 30 -5 30 -15 0 -12 -15 -15 -75 -15 -60 0 -75 3 -75 15 0 10
10 15 29 15 l29 0 1 101 2 101 -31 -22 c-28 -20 -55 -20 -48 0 5 14 81 69 96
70 9 0 12 -32 12 -125z m267 103 c42 -40 27 -93 -48 -174 l-52 -54 67 0 c52 0
66 -3 66 -15 0 -12 -17 -15 -90 -15 -60 0 -90 4 -90 11 0 6 29 43 65 80 53 57
65 75 65 103 0 47 -21 62 -70 49 -45 -12 -61 4 -26 24 34 20 87 16 113 -9z
m427 -152 c-38 -86 -75 -156 -81 -156 -20 0 -17 9 42 146 76 174 85 188 97
176 8 -8 -10 -57 -58 -166z m513 152 c42 -40 27 -93 -48 -174 l-52 -54 67 0
c52 0 66 -3 66 -15 0 -12 -17 -15 -90 -15 -60 0 -90 4 -90 11 0 6 29 43 65 80
53 57 65 75 65 103 0 47 -21 62 -70 49 -45 -12 -61 4 -26 24 34 20 87 16 113
-9z m248 2 c0 -11 -14 -16 -54 -18 -49 -3 -53 -5 -47 -25 3 -12 6 -28 6 -34 0
-7 11 -13 24 -13 41 0 80 -41 80 -83 0 -65 -62 -106 -130 -88 -50 13 -36 36
19 32 56 -3 77 10 77 50 0 34 -32 59 -77 59 l-33 0 0 70 0 71 68 -3 c52 -2 67
-6 67 -18z"/>
<path d="M8595 5075 c-100 -38 -86 -56 91 -118 88 -30 95 -19 47 71 -43 81
-45 82 -138 47z"/>
<path d="M8896 5029 c-50 -92 -42 -103 52 -70 178 64 188 78 82 117 -36 13
-72 24 -80 24 -9 0 -32 -30 -54 -71z"/>
<path d="M1561 2451 c-27 -27 -43 -90 -39 -156 l3 -54 77 72 c42 40 79 82 81
95 12 54 -80 85 -122 43z"/>
<path d="M1623 2264 c-47 -42 -83 -84 -83 -94 0 -26 47 -60 82 -60 37 0 75 37
83 81 3 19 5 60 3 92 l-3 57 -82 -76z"/>
<path d="M1967 2459 c-31 -18 -47 -65 -47 -139 0 -40 4 -70 9 -68 4 2 38 31
75 65 73 67 89 102 60 134 -19 21 -68 25 -97 8z"/>
<path d="M2017 2264 c-48 -42 -87 -78 -87 -81 0 -11 25 -49 39 -60 9 -7 30
-12 46 -12 60 0 85 40 92 150 3 44 4 79 1 79 -3 0 -44 -34 -91 -76z"/>
<path d="M2352 2450 c-32 -30 -28 -64 11 -93 17 -13 39 -27 48 -30 24 -8 72
45 72 79 0 57 -86 86 -131 44z"/>
<path d="M2356 2247 c-26 -25 -36 -43 -36 -65 0 -37 39 -72 81 -72 101 0 122
98 32 148 l-41 22 -36 -33z"/>
<path d="M2735 2445 c-18 -17 -25 -35 -25 -64 0 -53 34 -81 100 -81 76 0 105
38 80 105 -25 66 -109 87 -155 40z"/>
<path d="M3528 2269 c-30 -17 -38 -43 -27 -82 25 -91 140 -106 175 -22 16 39
4 89 -26 105 -24 13 -100 12 -122 -1z"/>
<path d="M5506 2449 c-21 -16 -26 -29 -26 -63 0 -62 26 -86 94 -86 75 0 100
21 90 75 -15 83 -98 121 -158 74z"/>
<path d="M5912 2454 c-43 -30 -22 -88 47 -124 20 -10 26 -9 52 16 55 53 29
124 -46 124 -17 0 -41 -7 -53 -16z"/>
<path d="M5915 2249 c-45 -40 -49 -87 -9 -118 78 -61 189 27 124 97 -11 12
-34 29 -50 37 -28 15 -31 14 -65 -16z"/>
<path d="M6685 2445 c-49 -48 -18 -143 47 -146 79 -4 118 17 118 62 0 37 -24
85 -49 99 -36 19 -90 12 -116 -15z"/>
<path d="M7476 2259 c-59 -47 -8 -148 75 -149 77 0 120 97 66 148 -31 30 -104
30 -141 1z"/>
<path d="M8688 2459 c-52 -30 -41 -87 22 -119 l41 -21 29 30 c35 35 39 72 10
101 -22 22 -73 26 -102 9z"/>
<path d="M8693 2259 c-44 -28 -59 -68 -39 -107 17 -34 33 -42 82 -42 41 0 84
37 84 73 0 23 -37 65 -75 85 -16 8 -28 6 -52 -9z"/>
<path d="M4400 2393 c-8 -11 -37 -48 -63 -82 l-48 -61 60 0 c60 0 60 0 66 33
4 17 5 54 3 82 -3 47 -4 48 -18 28z"/>
<path d="M6368 2383 c-14 -16 -42 -50 -62 -78 l-38 -50 58 -3 c39 -2 60 1 65
10 8 12 13 148 6 148 -2 0 -15 -12 -29 -27z"/>
<path d="M1810 1460 c0 -28 3 -31 28 -28 21 2 27 8 27 28 0 20 -6 26 -27 28
-25 3 -28 0 -28 -28z"/>
<path d="M1970 1415 c0 -66 2 -75 18 -75 37 0 55 25 55 75 0 50 -18 75 -55 75
-16 0 -18 -9 -18 -75z"/>
<path d="M2299 1463 c-13 -34 -5 -91 16 -112 37 -37 80 50 53 106 -19 40 -55
43 -69 6z"/>
<path d="M2630 1415 c0 -66 2 -75 18 -75 30 0 52 33 52 78 0 44 -19 72 -51 72
-17 0 -19 -8 -19 -75z"/>
<path d="M2960 1460 c0 -28 3 -31 28 -28 21 2 27 8 27 28 0 20 -6 26 -27 28
-25 3 -28 0 -28 -28z"/>
<path d="M8150 1415 c0 -68 2 -75 20 -75 31 0 60 36 60 73 0 43 -25 77 -56 77
-23 0 -24 -2 -24 -75z"/>
<path d="M1663 1435 c-11 -34 -10 -35 14 -35 21 0 23 3 17 23 -14 46 -20 48
-31 12z"/>
<path d="M3472 1441 c-14 -39 -12 -44 16 -39 17 3 18 6 7 38 l-12 34 -11 -33z"/>
<path d="M7683 1445 c-14 -44 -13 -48 15 -43 17 3 18 7 8 43 l-11 39 -12 -39z"/>
<path d="M2001 981 c-7 -24 -15 -49 -18 -57 -4 -10 4 -14 32 -14 35 0 37 1 31
26 -4 15 -13 40 -19 57 l-13 30 -13 -42z"/>
<path d="M3150 1005 c0 -43 1 -45 28 -45 28 0 62 26 62 48 0 16 -41 42 -67 42
-21 0 -23 -5 -23 -45z"/>
<path d="M3150 876 c0 -46 0 -46 34 -46 77 0 79 82 2 88 l-36 3 0 -45z"/>
<path d="M3620 1000 c0 -44 3 -50 21 -50 37 0 59 19 59 51 0 22 -6 32 -26 39
-48 19 -54 14 -54 -40z"/>
<path d="M4095 1025 c-21 -20 -25 -34 -25 -80 0 -31 7 -69 16 -86 13 -25 20
-30 47 -27 44 4 59 36 54 117 -2 52 -7 67 -26 82 -30 25 -37 24 -66 -6z"/>
</g>
</svg>
